<svg width="135" height="50" viewbox="0 0 135 50" xmlns="http://www.w3.org/2000/svg">
 <!-- Created with Method Draw - http://github.com/duopixel/Method-Draw/ -->

 <g transform="scale(0.5)">
  <title>Kat's Home for Cats Logo</title>
  <path id="svg_moe" fill="#a89787" stroke="#433333" stroke-opacity="null" d="m33.51852,77.59259l5,2.40741l7.40741,0.37037c4.32099,2.59259 2.71605,2.96296 4.07407,4.44444c-0.74074,4.07407 -2.96296,2.96296 -4.44444,4.44444c-9.38272,-0.49383 -19.87654,-1.7284 -30.37037,-5.92593c-4.93827,-2.34568 -11.72839,-6.54321 -7.03704,-21.48148c0.98765,-6.2963 1.97531,-12.59259 2.96296,-18.88889c10,-16.41975 15.55556,-12.83951 25.55556,-14.81481c10,-0.49383 22.22222,1.97531 33.33333,7.40741c0.74074,-0.61728 1.48148,-1.23457 2.22222,-1.85185c0.24691,-5.92593 -0.98765,-11.11111 0.74074,-17.77778l1.85185,-6.66667c3.7037,3.82716 7.40741,7.65432 11.11111,11.48148c5.06173,-1.11111 7.16049,0 10.74074,0c2.59259,-3.33333 5.18519,-6.66667 7.77778,-10c3.7037,1.23457 2.59259,8.76543 3.7037,11.48148c2.09877,10 0.8642,12.59259 -0.74074,21.11111l-5.18519,6.2963c2.22222,5.18519 4.07407,12.59259 -1.11111,17.77778c8.2716,7.90123 -1.60494,12.09877 -9.62963,8.14815c-19.32099,0.67901 -38.2716,0.98765 -57.96296,2.03703l0.00001,0.00001z" stroke-width="4"/>
  <path id="svg_andre" fill="#e0b085" stroke="#b06d39" stroke-width="4" stroke-opacity="null" d="m93.38122,80.69424l-17.96677,1.90586c-2.20282,0 -4.40565,0 -6.60847,0c-10.18806,3.24703 -5.50705,9.03521 -3.30423,8.47051l40.06383,-0.42353l4.95635,1.6941l52.45471,-1.27058c8.12291,4.65878 10.46341,1.6941 14.45602,2.54115c8.39826,-1.83528 6.05776,-3.67056 9.08664,-5.50583l3.71726,1.27058l58.65015,-0.42353c2.20282,-1.83528 1.92747,-3.67056 2.8912,-5.50583c-2.61585,-1.55293 -0.68838,-2.68233 -7.84755,-4.65878l-49.97653,0.42353l-3.30423,-1.27058c0.41303,-7.90581 -4.13029,-17.0822 -12.39088,-23.71743c-8.26058,-4.37643 -14.04299,-7.05876 -26.02084,-6.77641c-13.21693,1.1294 -20.65146,3.9529 -30.97719,5.92936c2.3405,-8.32934 -1.10141,-16.65867 -1.65212,-24.98801l-9.9127,9.31756c-4.13029,0 -5.36938,-1.6941 -12.39088,0c-3.30423,-2.82351 -6.19544,-7.34111 -9.9127,-8.47051c-1.70447,4.14724 -4.14969,11.52321 -2.47818,18.89918c-1.23909,19.48217 4.95635,11.59466 7.43453,17.94754c0.34419,4.87054 -3.02888,6.77641 1.03257,14.61163l0.00001,0.00002z"/>
 </g>
</svg>